<svg width="21" height="21" viewBox="0 0 21 21" fill="none" xmlns="http://www.w3.org/2000/svg">
<g clip-path="url(#clip0_0_28)">
<path d="M20.9864 17.2838C20.9196 16.7792 20.6283 16.3441 20.1872 16.0902L15.0064 13.1073C14.3719 12.7419 13.5669 12.8483 13.049 13.3662L12.0286 14.3866C11.757 14.6582 11.3274 14.6822 11.0295 14.4424C10.225 13.7951 9.43292 13.0827 8.67525 12.325C7.91759 11.5674 7.20519 10.7753 6.55783 9.9708C6.31804 9.67282 6.34203 9.24325 6.61366 8.97166L7.63407 7.95121C8.15194 7.43339 8.25844 6.62851 7.89301 5.99385L4.91011 0.813074C4.65612 0.371947 4.22107 0.0806735 3.71644 0.0139102C3.21177 -0.0529891 2.7159 0.115325 2.35596 0.475266L0.818363 2.01291C-0.254794 3.08611 -0.272029 5.04919 0.769833 7.54061C1.77165 9.9362 3.6412 12.5733 6.03402 14.9663C8.42693 17.3591 11.0641 19.2287 13.4597 20.2305C14.6861 20.7433 15.7843 20.9996 16.7116 20.9995C17.668 20.9995 18.4425 20.7268 18.9874 20.1819L20.525 18.6443C20.8849 18.2843 21.0531 17.7885 20.9864 17.2838ZM14.667 13.6968L19.8478 16.6797C20.104 16.8272 20.2732 17.08 20.3119 17.373C20.3445 17.619 20.2806 17.8612 20.1357 18.0564L13.2505 14.1269L13.5301 13.8472C13.8309 13.5465 14.2985 13.4847 14.667 13.6968ZM3.62718 0.688392C3.92032 0.727171 4.17299 0.896347 4.32049 1.15256L7.30339 6.33334C7.51565 6.70194 7.45378 7.16946 7.15303 7.47017L6.89618 7.72702L2.94508 0.864598C3.10659 0.744995 3.29976 0.680046 3.50114 0.680046C3.54291 0.680046 3.58505 0.682813 3.62718 0.688392ZM18.5063 19.7008C17.6537 20.5534 15.91 20.5177 13.7222 19.6028C11.4063 18.6343 8.84688 16.8169 6.51515 14.4852C4.18342 12.1534 2.36594 9.59394 1.39751 7.27814C0.482551 5.09032 0.446856 3.34659 1.29945 2.49395L2.44091 1.35244L6.39795 8.22525L6.13258 8.49063C5.61484 9.0084 5.56976 9.82807 6.02776 10.3974C6.69036 11.2208 7.41927 12.0313 8.19412 12.8061C8.96907 13.581 9.77948 14.3099 10.6029 14.9725C11.1721 15.4305 11.9918 15.3855 12.5097 14.8677L12.7518 14.6255L19.6465 18.5605L18.5063 19.7008Z" fill="white"/>
</g>
<defs>
<clipPath id="clip0_0_28">
<rect width="21" height="21" fill="white"/>
</clipPath>
</defs>
</svg>
