<svg width="21" height="21" viewBox="0 0 21 21" fill="none" xmlns="http://www.w3.org/2000/svg">
<path d="M10.5683 4.60217C9.08837 4.60217 7.88376 5.80679 7.88376 7.28676C7.88376 8.76674 9.08837 9.97135 10.5683 9.97135C12.0483 9.97135 13.2529 8.76674 13.2529 7.28676C13.2529 5.80679 12.0483 4.60217 10.5683 4.60217ZM10.5683 9.20432C9.511 9.20432 8.65078 8.3441 8.65078 7.28676C8.65078 6.22942 9.511 5.3692 10.5683 5.3692C11.6257 5.3692 12.4859 6.22942 12.4859 7.28676C12.4859 8.3441 11.6257 9.20432 10.5683 9.20432Z" fill="white"/>
<path d="M15.7012 2.15419C14.3121 0.765108 12.4651 0 10.5007 0C8.53599 0 6.68938 0.765108 5.3003 2.15419C2.72961 4.72449 2.41015 9.56059 4.60844 12.4906L10.5007 21L16.3842 12.5025C18.5913 9.56059 18.2718 4.72449 15.7012 2.15419ZM15.7621 12.0542L10.5007 19.6523L5.23088 12.0423C3.237 9.38379 3.52272 5.01635 5.84297 2.69648C7.08708 1.45236 8.74117 0.767025 10.5007 0.767025C12.2603 0.767025 13.9144 1.45236 15.1589 2.69648C17.4791 5.01635 17.7648 9.38379 15.7621 12.0542Z" fill="white"/>
</svg>
